<svg xmlns="http://www.w3.org/2000/svg" width="80" height="80" viewBox="0 0 80 80" fill="none">
  <g clip-path="url(#clip0_2288_1788)">
    <path d="M18.334 40H13.334V23.3333H6.66732V16.6667H26.6673V23.3333H20.0006V32.65L52.7106 23.8867L50.7773 16.6667H40.0006V10H53.2606C54.0069 9.98354 54.737 10.218 55.3342 10.6659C55.9313 11.1137 56.3608 11.749 56.554 12.47L61.7306 31.79L55.2906 33.5133L54.4373 30.3267L18.334 40ZM16.6673 63.3333C18.4354 63.3333 20.1311 62.631 21.3814 61.3807C22.6316 60.1305 23.334 58.4348 23.334 56.6667C23.334 54.8986 22.6316 53.2029 21.3814 51.9526C20.1311 50.7024 18.4354 50 16.6673 50C14.8992 50 13.2035 50.7024 11.9533 51.9526C10.703 53.2029 10.0007 54.8986 10.0007 56.6667C10.0007 58.4348 10.703 60.1305 11.9533 61.3807C13.2035 62.631 14.8992 63.3333 16.6673 63.3333ZM16.6673 70C13.1311 70 9.73971 68.5952 7.23923 66.0948C4.73874 63.5943 3.33398 60.2029 3.33398 56.6667C3.33398 53.1304 4.73874 49.7391 7.23923 47.2386C9.73971 44.7381 13.1311 43.3333 16.6673 43.3333C20.2035 43.3333 23.5949 44.7381 26.0954 47.2386C28.5959 49.7391 30.0006 53.1304 30.0006 56.6667C30.0006 60.2029 28.5959 63.5943 26.0954 66.0948C23.5949 68.5952 20.2035 70 16.6673 70ZM60.0006 63.3333C62.6528 63.3333 65.1964 62.2798 67.0717 60.4044C68.9471 58.529 70.0006 55.9855 70.0006 53.3333C70.0006 50.6812 68.9471 48.1376 67.0717 46.2623C65.1964 44.3869 62.6528 43.3333 60.0006 43.3333C57.3485 43.3333 54.8049 44.3869 52.9296 46.2623C51.0542 48.1376 50.0006 50.6812 50.0006 53.3333C50.0006 55.9855 51.0542 58.529 52.9296 60.4044C54.8049 62.2798 57.3485 63.3333 60.0006 63.3333ZM60.0006 70C55.5804 70 51.3411 68.2441 48.2155 65.1185C45.0899 61.9928 43.334 57.7536 43.334 53.3333C43.334 48.9131 45.0899 44.6738 48.2155 41.5482C51.3411 38.4226 55.5804 36.6667 60.0006 36.6667C64.4209 36.6667 68.6601 38.4226 71.7858 41.5482C74.9114 44.6738 76.6673 48.9131 76.6673 53.3333C76.6673 57.7536 74.9114 61.9928 71.7858 65.1185C68.6601 68.2441 64.4209 70 60.0006 70Z" fill="#143A79"/>
  </g>
  <defs>
    <clipPath id="clip0_2288_1788">
      <rect width="80" height="80" fill="white"/>
    </clipPath>
  </defs>
</svg>