<svg width="40" height="40" viewBox="0 0 40 40" fill="none" xmlns="http://www.w3.org/2000/svg">
<g id="Icons / Filter" clip-path="url(#clip0_2110_4259)">
<path id="Vector" d="M10.284 29.9999C10.6283 29.024 11.2669 28.1789 12.1117 27.5812C12.9564 26.9834 13.9658 26.6624 15.0007 26.6624C16.0355 26.6624 17.0449 26.9834 17.8897 27.5812C18.7344 28.1789 19.373 29.024 19.7173 29.9999H36.6673V33.3332H19.7173C19.373 34.3091 18.7344 35.1541 17.8897 35.7519C17.0449 36.3496 16.0355 36.6706 15.0007 36.6706C13.9658 36.6706 12.9564 36.3496 12.1117 35.7519C11.2669 35.1541 10.6283 34.3091 10.284 33.3332H3.33398V29.9999H10.284ZM20.284 18.3332C20.6283 17.3573 21.2669 16.5122 22.1117 15.9145C22.9564 15.3168 23.9658 14.9958 25.0007 14.9958C26.0355 14.9958 27.0449 15.3168 27.8897 15.9145C28.7344 16.5122 29.373 17.3573 29.7173 18.3332H36.6673V21.6665H29.7173C29.373 22.6424 28.7344 23.4875 27.8897 24.0852C27.0449 24.6829 26.0355 25.0039 25.0007 25.0039C23.9658 25.0039 22.9564 24.6829 22.1117 24.0852C21.2669 23.4875 20.6283 22.6424 20.284 21.6665H3.33398V18.3332H20.284ZM10.284 6.66652C10.6283 5.69063 11.2669 4.84558 12.1117 4.24784C12.9564 3.65009 13.9658 3.3291 15.0007 3.3291C16.0355 3.3291 17.0449 3.65009 17.8897 4.24784C18.7344 4.84558 19.373 5.69063 19.7173 6.66652H36.6673V9.99985H19.7173C19.373 10.9757 18.7344 11.8208 17.8897 12.4185C17.0449 13.0163 16.0355 13.3373 15.0007 13.3373C13.9658 13.3373 12.9564 13.0163 12.1117 12.4185C11.2669 11.8208 10.6283 10.9757 10.284 9.99985H3.33398V6.66652H10.284ZM15.0007 9.99985C15.4427 9.99985 15.8666 9.82426 16.1792 9.5117C16.4917 9.19914 16.6673 8.77521 16.6673 8.33319C16.6673 7.89116 16.4917 7.46724 16.1792 7.15468C15.8666 6.84211 15.4427 6.66652 15.0007 6.66652C14.5586 6.66652 14.1347 6.84211 13.8221 7.15468C13.5096 7.46724 13.334 7.89116 13.334 8.33319C13.334 8.77521 13.5096 9.19914 13.8221 9.5117C14.1347 9.82426 14.5586 9.99985 15.0007 9.99985ZM25.0007 21.6665C25.4427 21.6665 25.8666 21.4909 26.1792 21.1784C26.4917 20.8658 26.6673 20.4419 26.6673 19.9999C26.6673 19.5578 26.4917 19.1339 26.1792 18.8213C25.8666 18.5088 25.4427 18.3332 25.0007 18.3332C24.5586 18.3332 24.1347 18.5088 23.8221 18.8213C23.5096 19.1339 23.334 19.5578 23.334 19.9999C23.334 20.4419 23.5096 20.8658 23.8221 21.1784C24.1347 21.4909 24.5586 21.6665 25.0007 21.6665ZM15.0007 33.3332C15.4427 33.3332 15.8666 33.1576 16.1792 32.845C16.4917 32.5325 16.6673 32.1086 16.6673 31.6665C16.6673 31.2245 16.4917 30.8006 16.1792 30.488C15.8666 30.1754 15.4427 29.9999 15.0007 29.9999C14.5586 29.9999 14.1347 30.1754 13.8221 30.488C13.5096 30.8006 13.334 31.2245 13.334 31.6665C13.334 32.1086 13.5096 32.5325 13.8221 32.845C14.1347 33.1576 14.5586 33.3332 15.0007 33.3332Z" fill="black"/>
</g>
<defs>
<clipPath id="clip0_2110_4259">
<rect width="40" height="40" fill="white"/>
</clipPath>
</defs>
</svg>
