<svg width="30" height="28" viewBox="0 0 30 28" fill="none" xmlns="http://www.w3.org/2000/svg">
<g id="Group">
<path id="Vector" fill-rule="evenodd" clip-rule="evenodd" d="M1.36596 27.3627H1.27542C1.27542 27.3175 1.25274 27.2494 1.25274 27.2266C1.25274 27.2041 1.25274 27.1589 1.18471 27.1589H1.04865V27.3627H0.980615V26.8868H1.18471C1.27542 26.8868 1.34328 26.9096 1.34328 27C1.34328 27.068 1.32061 27.0909 1.29809 27.1132C1.32077 27.1361 1.34328 27.1587 1.34328 27.2041V27.2946C1.34328 27.3175 1.34328 27.3175 1.36596 27.3175V27.3627ZM1.27542 27.0228C1.27542 26.9548 1.23006 26.9548 1.20738 26.9548H1.04865V27.0909H1.18471C1.23006 27.0909 1.27542 27.068 1.27542 27.0228ZM1.66076 27.1134C1.66076 26.8416 1.43415 26.6147 1.13935 26.6147C0.867395 26.6147 0.640625 26.8416 0.640625 27.1134C0.640625 27.408 0.867395 27.6349 1.13935 27.6349C1.43399 27.6348 1.66076 27.408 1.66076 27.1134ZM1.59273 27.1134C1.59273 27.3628 1.3888 27.5441 1.13935 27.5441C0.889907 27.5441 0.708656 27.3627 0.708656 27.1134C0.708656 26.8868 0.890072 26.6827 1.13935 26.6827C1.38864 26.6827 1.59273 26.8868 1.59273 27.1134ZM29.5206 17.9553C29.5206 18.6355 29.0899 18.9525 28.319 18.9525H26.8458V18.2723H28.319C28.4551 18.2723 28.5685 18.2498 28.614 18.2046C28.6592 18.1591 28.7045 18.0911 28.7045 18.0005C28.7045 17.9097 28.6593 17.8191 28.614 17.7739C28.5685 17.7284 28.4779 17.7059 28.3419 17.7059C27.6394 17.683 26.7551 17.7284 26.7551 16.7311C26.7551 16.2776 27.0498 15.7788 27.8431 15.7788H29.3618V16.459H27.9563C27.8206 16.459 27.7297 16.459 27.6617 16.5042C27.5937 16.5722 27.5485 16.6402 27.5485 16.7536C27.5485 16.867 27.6165 16.935 27.7071 16.9806C27.7979 17.0031 27.8886 17.0257 28.002 17.0257H28.4099C28.8406 17.0257 29.1127 17.1163 29.2941 17.2752C29.4298 17.4338 29.5206 17.638 29.5206 17.9553ZM26.3243 17.2752C26.1428 17.1163 25.8707 17.0257 25.44 17.0257H25.0322C24.9189 17.0257 24.8281 17.0029 24.7375 16.9806C24.6467 16.935 24.579 16.867 24.579 16.7536C24.579 16.6402 24.6015 16.5722 24.6922 16.5042C24.7602 16.459 24.8507 16.459 24.9868 16.459H26.3923V15.7788H24.8736C24.0574 15.7788 23.7853 16.2776 23.7853 16.7311C23.7853 17.7282 24.6695 17.683 25.3723 17.7059C25.5081 17.7059 25.5989 17.7284 25.6441 17.7739C25.6893 17.8191 25.735 17.9097 25.735 18.0005C25.735 18.0911 25.6895 18.1591 25.6441 18.2046C25.5761 18.2498 25.4855 18.2723 25.3495 18.2723H23.876V18.9525H25.3495C26.12 18.9525 26.5509 18.6353 26.5509 17.9553C26.5509 17.638 26.4603 17.4338 26.3243 17.2752ZM23.4226 18.2953H21.6321V17.6605H23.3774V17.0261H21.6321V16.4365H23.4226V15.7792H20.8839V18.9526H23.4226V18.2953ZM20.0677 15.9379C19.8183 15.8018 19.5236 15.779 19.1383 15.779H17.393V18.9525H18.1635V17.7964H18.9797C19.2515 17.7964 19.4104 17.8193 19.5238 17.9325C19.6599 18.0911 19.6599 18.3632 19.6599 18.5673V18.9525H20.4077V18.3404C20.4077 18.0457 20.3852 17.9097 20.2945 17.7511C20.2265 17.6602 20.0907 17.547 19.9093 17.479C20.1131 17.4113 20.4534 17.1391 20.4534 16.6402C20.4532 16.2777 20.3172 16.0736 20.0677 15.9379ZM15.7607 15.779H13.3351L12.3603 16.8218L11.4309 15.779H8.37068V18.9525H11.3857L12.3605 17.9097L13.2899 18.9525H14.7634V17.8873H15.7155C16.3729 17.8873 17.0305 17.7059 17.0305 16.8218C17.0303 15.9604 16.3502 15.779 15.7607 15.779ZM19.4556 17.0939C19.3424 17.1391 19.229 17.1391 19.0929 17.1391L18.1635 17.162V16.4363H19.0929C19.229 16.4363 19.3651 16.4363 19.4556 16.5043C19.5465 16.5499 19.6142 16.6404 19.6142 16.7765C19.6142 16.9125 19.5465 17.0259 19.4556 17.0939ZM15.7607 17.2525H14.7633V16.4363H15.7607C16.0329 16.4363 16.2141 16.5499 16.2141 16.8218C16.2141 17.0939 16.0327 17.2525 15.7607 17.2525ZM12.8364 17.3657L14.0151 16.1192V18.6807L12.8364 17.3657ZM11.0002 18.2953H9.11869V17.6605H10.7961V17.0261H9.11869V16.4365H11.0229L11.8616 17.3659L11.0002 18.2953ZM27.4123 13.4895H26.3243L24.8961 11.1092V13.4895H23.3549L23.0599 12.7866H21.4732L21.1786 13.4895H20.2943C19.9317 13.4895 19.4556 13.3987 19.1838 13.1266C18.9344 12.8547 18.7983 12.492 18.7983 11.9252C18.7983 11.4492 18.8663 11.0185 19.2062 10.6785C19.4328 10.429 19.8409 10.3158 20.3622 10.3158H21.0875V10.996H20.3622C20.0904 10.996 19.9315 11.0413 19.7729 11.1774C19.6369 11.3135 19.5688 11.5627 19.5688 11.9027C19.5688 12.2427 19.6369 12.4922 19.7729 12.6509C19.8861 12.7641 20.0904 12.8095 20.2942 12.8095H20.6343L21.7223 10.316H22.8558L24.1252 13.3082V10.3158H25.3041L26.6416 12.5147V10.3158H27.4121V13.4895H27.4123ZM18.413 10.3158H17.6424V13.4895H18.413V10.3158ZM16.8034 10.4519C16.5539 10.3158 16.2821 10.3158 15.8968 10.3158H14.1512V13.4895H14.8992V12.3333H15.7152C15.9873 12.3333 16.1688 12.3559 16.282 12.4693C16.418 12.6281 16.3952 12.9002 16.3952 13.0814V13.4895H17.1657V12.8547C17.1657 12.5827 17.1432 12.4466 17.03 12.2879C16.962 12.1972 16.8259 12.0838 16.6673 12.0159C16.8711 11.9252 17.2114 11.676 17.2114 11.1772C17.2116 10.8146 17.0527 10.6105 16.8034 10.4519ZM13.6071 12.8322H11.8389V12.1974H13.5844V11.5401H11.8389V10.9733H13.6071V10.316H11.0682V13.4896H13.6071V12.8322ZM10.5015 10.3158H9.25475L8.32532 12.4693L7.32786 10.3158H6.1038V13.308L4.81171 10.3158H3.67835L2.31823 13.4895H3.13427L3.42891 12.7866H5.01564L5.31027 13.4895H6.85181V10.996L7.96249 13.4895H8.61979L9.73064 10.996V13.4895H10.5013V10.3158H10.5015ZM22.7881 12.1067L22.2666 10.8599L21.7453 12.1067H22.7881ZM16.2141 11.6081C16.1009 11.6761 15.9875 11.6761 15.8288 11.6761H14.8992V10.9735H15.8286C15.9647 10.9735 16.1231 10.9735 16.2139 11.0188C16.3045 11.0868 16.35 11.1776 16.35 11.3135C16.35 11.4493 16.3047 11.5626 16.2141 11.6081ZM3.70086 12.1067L4.22227 10.8599L4.74368 12.1067H3.70086ZM29.3393 0.364258H2.29539V11.7893L3.22481 9.6812H5.19689L5.46901 10.2026V9.6812H7.78124L8.30264 10.8146L8.80137 9.6812H16.1688C16.5086 9.6812 16.8032 9.74923 17.0302 9.93048V9.6812H19.0476V9.93048C19.3874 9.74907 19.8181 9.6812 20.317 9.6812H23.2412L23.5133 10.2026V9.6812H25.6668L25.9843 10.2026V9.6812H28.0922V14.1242H25.9616L25.5537 13.4443V14.1242H22.9014L22.6067 13.3989H21.9491L21.6544 14.1242H20.2718C19.7277 14.1242 19.3195 13.9882 19.0477 13.8523V14.1242H15.7607V13.1041C15.7607 12.968 15.7381 12.9454 15.6474 12.9454H15.5341V14.1241H9.18672V13.5573L8.96011 14.1241H7.62266L7.39606 13.58V14.1241H4.83438L4.56243 13.3987H3.90496L3.61032 14.1241H2.29539V27.5214H29.3393V19.3832C29.0447 19.5192 28.6365 19.5873 28.2285 19.5873H26.2562V19.3151C26.0296 19.4967 25.6214 19.5873 25.2363 19.5873H19.0249V18.5673C19.0249 18.4312 19.0024 18.4312 18.8888 18.4312H18.7756V19.5873H16.7354V18.3859C16.3955 18.5444 16.01 18.5444 15.67 18.5444H15.4433V19.5873H12.9498L12.3605 18.9071L11.7032 19.5873H7.69053V15.1444H11.7709L12.3603 15.8242L12.9951 15.1444H15.7381C16.0552 15.1444 16.5768 15.1896 16.8034 15.4162V15.1444H19.2515C19.501 15.1444 19.9772 15.1896 20.2943 15.4162V15.1444H23.9894V15.4163C24.1934 15.2349 24.579 15.1445 24.9188 15.1445H26.9816V15.4163C27.2085 15.2578 27.5256 15.1445 27.9338 15.1445H29.3393V0.364258Z" fill="#0077A6"/>
</g>
</svg>
