<svg width="34" height="28" viewBox="0 0 34 28" fill="none" xmlns="http://www.w3.org/2000/svg">
<g id="Group">
<path id="Vector" d="M33.1349 26.7528V26.82H33.1975C33.2093 26.8201 33.2209 26.8172 33.2311 26.8114C33.2352 26.8085 33.2385 26.8046 33.2407 26.8001C33.2429 26.7957 33.2439 26.7907 33.2437 26.7857C33.2439 26.7808 33.2429 26.7759 33.2407 26.7715C33.2385 26.7672 33.2352 26.7634 33.2311 26.7607C33.221 26.7546 33.2093 26.7516 33.1975 26.7521H33.1349V26.7528ZM33.1982 26.7052C33.2251 26.7036 33.2516 26.7113 33.2734 26.7271C33.2822 26.7342 33.2891 26.7433 33.2937 26.7537C33.2983 26.764 33.3004 26.7753 33.2998 26.7865C33.3002 26.7962 33.2985 26.8059 33.2949 26.8149C33.2912 26.8239 33.2857 26.8321 33.2787 26.8388C33.2618 26.8534 33.2407 26.8622 33.2185 26.8638L33.3025 26.9595H33.2378L33.1606 26.8645H33.1356V26.9595H33.0815V26.7054H33.199L33.1982 26.7052ZM33.1814 27.0472C33.2098 27.0475 33.2379 27.0417 33.2639 27.0304C33.2889 27.0196 33.3117 27.0042 33.3311 26.9849C33.3504 26.9656 33.3659 26.9428 33.3766 26.9177C33.3986 26.8645 33.3986 26.8047 33.3766 26.7514C33.3657 26.7264 33.3503 26.7036 33.3311 26.6842C33.3117 26.665 33.2889 26.6495 33.2639 26.6387C33.2377 26.628 33.2097 26.6226 33.1814 26.6229C33.1527 26.6227 33.1241 26.628 33.0974 26.6387C33.0718 26.6493 33.0485 26.6648 33.0287 26.6842C32.999 26.7147 32.9789 26.7533 32.971 26.7951C32.963 26.8369 32.9675 26.8801 32.9839 26.9194C32.9941 26.9446 33.0094 26.9674 33.0287 26.9866C33.0485 27.006 33.0718 27.0215 33.0974 27.0321C33.124 27.0434 33.1526 27.0491 33.1814 27.0489V27.0472ZM33.1814 26.5618C33.2552 26.5617 33.3261 26.5907 33.3788 26.6424C33.4041 26.6673 33.4243 26.6969 33.4382 26.7296C33.4526 26.7632 33.46 26.7993 33.46 26.8358C33.46 26.8723 33.4526 26.9085 33.4382 26.9421C33.424 26.9746 33.4039 27.0041 33.3788 27.0292C33.353 27.0539 33.323 27.0738 33.2902 27.088C33.2558 27.1026 33.2188 27.1101 33.1814 27.1098C33.1436 27.1101 33.1061 27.1027 33.0712 27.088C33.0381 27.0742 33.0078 27.0542 32.982 27.0292C32.9569 27.0032 32.9371 26.9727 32.9234 26.9392C32.9091 26.9056 32.9017 26.8695 32.9017 26.833C32.9017 26.7965 32.9091 26.7603 32.9234 26.7267C32.9373 26.694 32.9575 26.6644 32.9829 26.6396C33.0083 26.6141 33.0387 26.5941 33.0721 26.5808C33.1069 26.5661 33.1444 26.5587 33.1823 26.559L33.1814 26.5618ZM7.46428 25.5805C7.46428 25.0959 7.78172 24.6979 8.30053 24.6979C8.79633 24.6979 9.13089 25.0788 9.13089 25.5805C9.13089 26.0821 8.79633 26.4631 8.30053 26.4631C7.78172 26.4631 7.46428 26.065 7.46428 25.5805ZM9.69606 25.5805V24.2015H9.09663V24.5375C8.9065 24.2892 8.61813 24.1335 8.22596 24.1335C7.45337 24.1335 6.84705 24.7395 6.84705 25.5811C6.84705 26.4227 7.45303 27.0287 8.22596 27.0287C8.61796 27.0287 8.9065 26.8729 9.09663 26.6248V26.9595H9.69538V25.5805H9.69606ZM29.95 25.5805C29.95 25.0959 30.2674 24.6979 30.7864 24.6979C31.2827 24.6979 31.6167 25.0788 31.6167 25.5805C31.6167 26.0821 31.2827 26.4631 30.7864 26.4631C30.2676 26.4631 29.95 26.065 29.95 25.5805ZM32.1824 25.5805V23.0947H31.5825V24.5375C31.3924 24.2892 31.104 24.1335 30.7118 24.1335C29.9392 24.1335 29.3329 24.7395 29.3329 25.5811C29.3329 26.4227 29.9389 27.0287 30.7118 27.0287C31.104 27.0287 31.3924 26.8729 31.5825 26.6248V26.9595H32.1824V25.5805ZM17.1357 24.6695C17.522 24.6695 17.7701 24.9117 17.8334 25.3381H16.4031C16.4671 24.94 16.7088 24.6695 17.1359 24.6695H17.1357ZM17.1478 24.132C16.34 24.132 15.7748 24.7199 15.7748 25.5796C15.7748 26.4562 16.3627 27.0272 17.188 27.0272C17.6032 27.0272 17.9834 26.9236 18.318 26.6409L18.0242 26.1967C17.7931 26.3814 17.4989 26.4851 17.2222 26.4851C16.836 26.4851 16.4843 26.3062 16.3978 25.8099H18.4446C18.4505 25.7353 18.4565 25.6601 18.4565 25.5794C18.4505 24.72 17.9191 24.1318 17.1475 24.1318L17.1478 24.132ZM24.3846 25.5794C24.3846 25.0949 24.7021 24.6968 25.2209 24.6968C25.7167 24.6968 26.0513 25.0778 26.0513 25.5794C26.0513 26.0811 25.7167 26.462 25.2209 26.462C24.7021 26.462 24.3845 26.064 24.3845 25.5794H24.3846ZM26.6163 25.5794V24.2015H26.0172V24.5375C25.8264 24.2892 25.5387 24.1335 25.1465 24.1335C24.3739 24.1335 23.7676 24.7395 23.7676 25.5811C23.7676 26.4227 24.3736 27.0287 25.1465 27.0287C25.5387 27.0287 25.8264 26.8729 26.0172 26.6248V26.9595H26.6164V25.5805L26.6163 25.5794ZM20.9995 25.5794C20.9995 26.4157 21.5817 27.027 22.4701 27.027C22.8853 27.027 23.1619 26.9347 23.4611 26.6984L23.1732 26.2138C22.9481 26.3755 22.7118 26.462 22.451 26.462C21.9725 26.4562 21.6206 26.1102 21.6206 25.5794C21.6206 25.0487 21.9725 24.7029 22.451 24.6968C22.7112 24.6968 22.9475 24.7833 23.1732 24.9451L23.4611 24.4605C23.1614 24.2242 22.8848 24.1318 22.4701 24.1318C21.5817 24.1318 20.9995 24.743 20.9995 25.5794ZM28.7271 24.1318C28.3813 24.1318 28.1561 24.2936 28.0004 24.5358V24.2015H27.4063V26.958H28.0064V25.4128C28.0064 24.9567 28.2024 24.7032 28.5942 24.7032C28.7226 24.7014 28.85 24.7249 28.9691 24.7726L29.1539 24.2076C29.0212 24.1554 28.8482 24.1323 28.7268 24.1323L28.7271 24.1318ZM12.6596 24.4207C12.3712 24.2306 11.9738 24.1323 11.5355 24.1323C10.8371 24.1323 10.3875 24.4671 10.3875 25.0148C10.3875 25.4642 10.7223 25.7415 11.3386 25.828L11.6218 25.8683C11.9505 25.9145 12.1057 26.001 12.1057 26.1567C12.1057 26.3698 11.8874 26.4914 11.4774 26.4914C11.0622 26.4914 10.7626 26.3588 10.5605 26.2031L10.2789 26.6705C10.6075 26.9127 11.0227 27.0282 11.4723 27.0282C12.2684 27.0282 12.7298 26.6533 12.7298 26.1285C12.7298 25.6439 12.3667 25.3905 11.7668 25.304L11.4843 25.263C11.2248 25.2294 11.0168 25.1772 11.0168 24.9924C11.0168 24.7909 11.2128 24.6696 11.5417 24.6696C11.8936 24.6696 12.2342 24.8023 12.4011 24.9059L12.6606 24.4214L12.6596 24.4207ZM20.3941 24.1329C20.0482 24.1329 19.823 24.2946 19.668 24.5368V24.2015H19.0739V26.958H19.6734V25.4128C19.6734 24.9567 19.8694 24.7032 20.2612 24.7032C20.3895 24.7014 20.5169 24.7249 20.6361 24.7726L20.8208 24.2076C20.6881 24.1554 20.5152 24.1323 20.3937 24.1323L20.3941 24.1329ZM15.2788 24.2015H14.2987V23.3653H13.6927V24.2015H13.1336V24.7494H13.6927V26.0069C13.6927 26.6465 13.9409 27.0274 14.65 27.0274C14.9102 27.0274 15.2098 26.9468 15.3999 26.8142L15.2268 26.301C15.0479 26.4046 14.8519 26.4568 14.696 26.4568C14.3964 26.4568 14.2987 26.2721 14.2987 25.9955V24.7499H15.2788V24.2015ZM6.31699 26.9587V25.2288C6.31699 24.5773 5.90181 24.1389 5.23251 24.133C4.88065 24.1271 4.5177 24.2366 4.26358 24.6234C4.07346 24.3178 3.77383 24.133 3.3526 24.133C3.05818 24.133 2.77047 24.2195 2.54524 24.5423V24.2015H1.94531V26.958H2.54995V25.4296C2.54995 24.9511 2.81531 24.6968 3.22512 24.6968C3.62317 24.6968 3.82455 24.9563 3.82455 25.4236V26.9577H4.43053V25.4293C4.43053 24.9508 4.70715 24.6965 5.10503 24.6965C5.51434 24.6965 5.70967 24.956 5.70967 25.4232V26.9573L6.31699 26.9587Z" fill="#231F20"/>
<path id="Vector_2" d="M33.4764 17.7898V17.3867H33.3715L33.25 17.6633L33.1293 17.3867H33.024V17.7898H33.0985V17.4861L33.2121 17.7481H33.2893L33.4029 17.4855V17.7898H33.4768H33.4764ZM32.8105 17.7898V17.4557H32.9449V17.3877H32.6016V17.4557H32.7359V17.7898H32.8098H32.8105Z" fill="#F79410"/>
<path id="Vector_3" d="M21.5449 19.5185H12.4609V3.19336H21.5451L21.5449 19.5185Z" fill="#FF5F00"/>
<path id="Vector_4" d="M13.0368 11.3561C13.0368 8.04451 14.5873 5.09456 17.0018 3.19349C15.1742 1.75236 12.9136 0.970205 10.5862 0.973644C4.8527 0.973644 0.205078 5.62194 0.205078 11.3561C0.205078 17.0902 4.8527 21.7385 10.5862 21.7385C12.9137 21.7419 15.1743 20.9598 17.002 19.5186C14.5877 17.6179 13.0368 14.6678 13.0368 11.3561Z" fill="#EB001B"/>
<path id="Vector_5" d="M33.7997 11.3561C33.7997 17.0902 29.1521 21.7385 23.4186 21.7385C21.0909 21.7419 18.83 20.9598 17.002 19.5186C19.4171 17.6176 20.9677 14.6678 20.9677 11.3561C20.9677 8.04434 19.4171 5.09456 17.002 3.19349C18.83 1.7524 21.0907 0.970265 23.4185 0.973644C29.1519 0.973644 33.7995 5.62194 33.7995 11.3561" fill="#F79E1B"/>
</g>
</svg>
