<svg width="38" height="22" viewBox="0 0 38 22" fill="none" xmlns="http://www.w3.org/2000/svg">
<g id="Group">
<path id="Vector" fill-rule="evenodd" clip-rule="evenodd" d="M3.40234 21.0454C10.8472 17.8549 21.2933 14.9629 35.1284 17.8586L35.2735 14.3495C20.6768 12.7558 10.2031 17.4048 3.40234 20.6995V21.0454Z" fill="#E7A83A"/>
<path id="Vector_2" fill-rule="evenodd" clip-rule="evenodd" d="M11.1866 11.7925L14.4133 1.15338H17.2924L14.0655 11.7925H11.1866ZM9.89961 1.15628L7.30981 5.66623C6.65053 6.84741 6.26517 7.44402 6.07986 8.19046H6.04043C6.08629 7.24418 5.95431 6.08251 5.94186 5.42593L5.6559 1.15628H0.80957L0.759766 1.44245C2.00486 1.44245 2.74321 2.0679 2.94636 3.34724L3.89098 11.7925H6.87361L12.9044 1.15628H9.89961ZM32.2887 11.7925L32.2093 10.2102L28.6143 10.2073L27.879 11.7923H24.7534L30.4209 1.17351H34.2575L35.2172 11.7923H32.2887V11.7925ZM31.9586 5.51682C31.9266 4.73054 31.8999 3.66328 31.9534 3.01749H31.9109C31.7357 3.54562 30.9831 5.13167 30.6521 5.91172L29.5809 8.24379H32.1051L31.9586 5.51682ZM20.3148 12.0949C18.2822 12.0949 16.9334 11.4501 15.9703 10.8753L17.3418 8.78084C18.2063 9.26435 18.8851 9.82236 20.4468 9.82236C20.949 9.82236 21.4329 9.69183 21.7077 9.216C22.1082 8.52393 21.6154 8.15165 20.4906 7.51499L19.9353 7.15391C18.2681 6.01465 17.547 4.93266 18.3318 3.04385C18.834 1.83569 20.1586 0.919922 22.3437 0.919922C23.8507 0.919922 25.2635 1.57173 26.0867 2.2086L24.51 4.05777C23.7067 3.40804 23.0408 3.07933 22.2788 3.07933C21.6712 3.07933 21.2097 3.31362 21.0503 3.62967C20.7504 4.22379 21.1472 4.62886 22.0233 5.17276L22.6836 5.59277C24.7078 6.86941 25.19 8.2081 24.6827 9.45962C23.8103 11.6138 22.102 12.0949 20.3148 12.0949ZM36.0047 2.79898H35.8151V1.64561H36.2527C36.5312 1.64561 36.6734 1.74314 36.6734 1.97722C36.6734 2.18598 36.5449 2.2723 36.3722 2.29181L36.6954 2.79898H36.481L36.183 2.30592H36.0047V2.79898ZM36.2162 2.14427C36.3586 2.14427 36.4837 2.13036 36.4837 1.96311C36.4837 1.82386 36.3471 1.80705 36.2332 1.80705H36.0045V2.14427H36.2162ZM36.2106 3.24472C35.6119 3.24472 35.1857 2.79628 35.1857 2.20279C35.1857 1.57588 35.659 1.16085 36.2106 1.16085C36.757 1.16085 37.2303 1.57588 37.2303 2.20279C37.2303 2.82948 36.757 3.24472 36.2106 3.24472ZM36.2106 1.34201C35.7595 1.34201 35.4085 1.69562 35.4085 2.20279C35.4085 2.67634 35.715 3.06356 36.2106 3.06356C36.6563 3.06356 37.0075 2.71265 37.0075 2.20279C37.0075 1.69562 36.6563 1.34201 36.2106 1.34201Z" fill="#1D5B99"/>
</g>
</svg>
