<svg width="40" height="26" viewBox="0 0 40 26" fill="none" xmlns="http://www.w3.org/2000/svg">
<g id="Group">
<path id="Vector" d="M38.0237 0.20765L28.1741 0.205078H28.1714C28.1637 0.205078 28.1564 0.206432 28.1489 0.206432C26.7958 0.247853 25.1104 1.3332 24.8036 2.6714L20.1456 23.2822C19.8386 24.633 20.6735 25.732 22.0168 25.7522H32.3644C33.687 25.6868 34.9727 24.6139 35.2743 23.2909L39.9326 2.67993C40.2445 1.3156 39.3895 0.20765 38.0237 0.20765Z" fill="#01798A"/>
<path id="Vector_2" d="M20.1469 23.2827L24.8049 2.67188C25.1118 1.33368 26.7972 0.248336 28.1503 0.206915L24.234 0.204479L17.1781 0.203125C15.8213 0.230874 14.1141 1.3238 13.8072 2.67202L9.14784 23.2827C8.83976 24.6335 9.67603 25.7325 11.0184 25.7527H22.0182C20.6748 25.7325 19.8399 24.6335 20.1469 23.2827Z" fill="#024381"/>
<path id="Vector_3" d="M9.14718 23.2822L13.8065 2.67139C14.1134 1.32317 15.8206 0.230246 17.1775 0.202496L8.13859 0.200195C6.77412 0.200195 5.02469 1.30571 4.71281 2.67139L0.0534685 23.2822C0.0251776 23.408 0.00934007 23.5313 0 23.6518V24.034C0.0912349 25.0187 0.843178 25.7357 1.92405 25.7521H11.0178C9.67537 25.732 8.83909 24.633 9.14718 23.2822Z" fill="#DD0228"/>
<path id="Vector_4" d="M17.3679 15.2208H17.539C17.6962 15.2208 17.8019 15.1679 17.8516 15.0635L18.2961 14.3984H19.4864L19.2382 14.8359H20.6654L20.4842 15.5063H18.786C18.5904 15.8006 18.3496 15.9388 18.0602 15.9224H17.1756L17.3679 15.2208ZM17.1724 16.1815H20.2995L20.1001 16.9098H18.8424L18.6506 17.6126H19.8743L19.675 18.3408H18.4514L18.1671 19.3795C18.0967 19.5531 18.1893 19.6311 18.4432 19.6135H19.4405L19.2557 20.2903H17.341C16.9781 20.2903 16.8535 20.0827 16.9674 19.6664L17.3308 18.3409H16.5487L16.7474 17.6127H17.5297L17.7215 16.9099H16.9737L17.1724 16.1815ZM22.1633 14.3932L22.1142 14.8196C22.1142 14.8196 22.7039 14.3768 23.2396 14.3768H25.219L24.462 17.1171C24.3992 17.4304 24.13 17.5862 23.6546 17.5862H21.4109L20.8855 19.5104C20.855 19.6135 20.8979 19.6663 21.0111 19.6663H21.4526L21.2903 20.2636H20.168C19.7373 20.2636 19.5581 20.1341 19.6292 19.8738L21.1142 14.3932H22.1633ZM23.8396 15.1679H22.0727L21.8613 15.9074C21.8613 15.9074 22.1556 15.695 22.6474 15.6874C23.1378 15.6797 23.6975 15.6874 23.6975 15.6874L23.8396 15.1679ZM23.1994 16.8832C23.33 16.901 23.4032 16.8494 23.4119 16.7273L23.52 16.3376H21.7506L21.6022 16.8832H23.1994ZM22.006 17.7686H23.026L23.0069 18.2101H23.2784C23.4157 18.2101 23.4838 18.1661 23.4838 18.0793L23.5642 17.7938H24.412L24.2988 18.2101C24.203 18.5571 23.9491 18.7382 23.5366 18.756H22.9932L22.9906 19.5104C22.9808 19.6312 23.0899 19.6928 23.315 19.6928H23.8256L23.6608 20.2903H22.4359C22.0925 20.3066 21.9241 20.143 21.9278 19.796L22.006 17.7686ZM9.64625 10.7425C9.50791 11.4204 9.18723 11.941 8.68977 12.3107C8.19678 12.6741 7.56111 12.8564 6.78264 12.8564C6.05005 12.8564 5.51306 12.6703 5.17032 12.2968C4.93263 12.0315 4.81445 11.6945 4.81445 11.287C4.81445 11.1185 4.83462 10.9374 4.87483 10.7426L5.7042 6.74357H6.95671L6.13885 10.6971C6.11545 10.7964 6.10409 10.8982 6.10501 11.0002C6.10365 11.2027 6.15401 11.3687 6.2558 11.4982C6.40416 11.6907 6.64497 11.7861 6.98027 11.7861C7.36565 11.7861 7.68321 11.6919 7.92971 11.5019C8.1762 11.3132 8.33715 11.0454 8.40943 10.697L9.23001 6.74316H10.4763L9.64625 10.7425ZM14.9067 9.16914H15.8877L15.1193 12.7383H14.1402L14.9067 9.16914ZM15.2155 7.86884H16.2053L16.0204 8.73517H15.0307L15.2155 7.86884ZM16.7561 12.4666C16.4994 12.2213 16.3699 11.8906 16.3687 11.4706C16.3687 11.3988 16.373 11.3172 16.3826 11.2279C16.3921 11.1373 16.404 11.0493 16.4209 10.9676C16.5372 10.3878 16.785 9.92758 17.1666 9.58796C17.5477 9.24711 18.0074 9.07615 18.5457 9.07615C18.9865 9.07615 19.3361 9.19946 19.5921 9.44583C19.8479 9.69368 19.9761 10.028 19.9761 10.4532C19.9761 10.526 19.9705 10.6104 19.9611 10.7009C19.9501 10.7902 19.9364 10.8791 19.9202 10.9676C19.8065 11.5385 19.5594 11.9938 19.1777 12.327C18.796 12.6627 18.3375 12.8299 17.8031 12.8299C17.3605 12.83 17.012 12.7093 16.7561 12.4666ZM18.6256 11.7599C18.7986 11.5725 18.9223 11.2883 18.9978 10.9098C19.0092 10.8506 19.0192 10.789 19.0254 10.7274C19.0317 10.6671 19.0342 10.6105 19.0342 10.5589C19.0342 10.3388 18.9782 10.1679 18.8657 10.0471C18.7539 9.92515 18.5948 9.86478 18.3892 9.86478C18.1176 9.86478 17.8961 9.96021 17.7227 10.1515C17.5478 10.3427 17.4238 10.6319 17.3458 11.0167C17.3352 11.0759 17.3264 11.135 17.3182 11.1928C17.312 11.252 17.3101 11.3072 17.3113 11.3576C17.3113 11.5764 17.3674 11.745 17.4799 11.8644C17.5918 11.9839 17.7502 12.0429 17.9584 12.0429C18.2314 12.0428 18.4526 11.9484 18.6256 11.7599Z" fill="white"/>
<path id="Vector_5" d="M28.1712 0.205319L24.2324 0.204102L28.1487 0.206673C28.1561 0.206673 28.1635 0.205319 28.1712 0.205319Z" fill="#E02F41"/>
<path id="Vector_6" d="M24.2336 0.203986L17.2319 0.200195C17.2143 0.200195 17.196 0.201414 17.1777 0.202632L24.2336 0.203986Z" fill="#2E4F7D"/>
<path id="Vector_7" d="M26.3406 15.2515L26.5771 14.419H27.7732L27.7216 14.7247C27.7216 14.7247 28.3326 14.419 28.7729 14.419H30.2517L30.0167 15.2515H29.784L28.6685 19.1778H28.9012L28.6799 19.9575H28.4472L28.3504 20.2958H27.1921L27.2887 19.9575H25.0038L25.2265 19.1778H25.4554L26.572 15.2515H26.3406ZM27.6311 15.2515L27.3268 16.3141C27.3268 16.3141 27.8476 16.1142 28.2965 16.0576C28.3956 15.6867 28.5251 15.2515 28.5251 15.2515H27.6311ZM27.1859 16.8122L26.8803 17.9253C26.8803 17.9253 27.4575 17.6411 27.8536 17.6172C27.968 17.1871 28.0825 16.8124 28.0825 16.8124H27.1859V16.8122ZM27.4096 19.1778L27.6384 18.3704H26.7458L26.5155 19.1778H27.4096ZM30.3021 14.3674H31.4265L31.4743 14.7823C31.4667 14.8879 31.5297 14.9384 31.663 14.9384H31.8617L31.6607 15.6412H30.8343C30.5189 15.6574 30.3566 15.5368 30.3414 15.2765L30.3021 14.3674ZM29.9726 15.8754H33.6145L33.4008 16.63H32.2413L32.0424 17.3316H33.201L32.9858 18.0849H31.6956L31.4038 18.5265H32.0354L32.1812 19.4105C32.1985 19.4985 32.2765 19.5413 32.4099 19.5413H32.6059L32.3999 20.2693H31.7056C31.3458 20.287 31.16 20.1663 31.1447 19.906L30.9774 19.0985L30.4028 19.9575C30.2669 20.2002 30.058 20.3134 29.7764 20.2958H28.7163L28.9224 19.5676H29.2533C29.3892 19.5676 29.5022 19.5073 29.604 19.3852L30.5035 18.0849H29.3439L29.5589 17.3316H30.8166L31.0165 16.63H29.7578L29.9726 15.8754ZM10.7998 9.16854H11.6846L11.5833 9.68414L11.7103 9.537C11.9971 9.23013 12.3454 9.07798 12.7567 9.07798C13.1289 9.07798 13.3973 9.18614 13.566 9.40367C13.7319 9.62119 13.7773 9.92184 13.6987 10.3079L13.2112 12.7401H12.302L12.742 10.5356C12.7874 10.3079 12.7748 10.1381 12.7049 10.0286C12.6359 9.91926 12.5038 9.86525 12.3132 9.86525C12.0793 9.86525 11.8825 9.93808 11.7221 10.0828C11.5611 10.2287 11.4549 10.4312 11.4026 10.6889L10.9971 12.7401H10.0859L10.7998 9.16854ZM20.9455 9.16854H21.831L21.7304 9.68414L21.8559 9.537C22.143 9.23013 22.4925 9.07798 22.9025 9.07798C23.2748 9.07798 23.5436 9.18614 23.7111 9.40367C23.8761 9.62119 23.9236 9.92184 23.8432 10.3079L23.3576 12.7401H22.4472L22.8875 10.5356C22.9327 10.3079 22.92 10.1381 22.8508 10.0286C22.7791 9.91926 22.6496 9.86525 22.4598 9.86525C22.2257 9.86525 22.0297 9.93808 21.8674 10.0828C21.7065 10.2287 21.5995 10.4312 21.5493 10.6889L21.1417 12.7401H20.2318L20.9455 9.16854ZM25.3222 6.95508H27.8927C28.3868 6.95508 28.7692 7.06702 29.0319 7.28699C29.2935 7.5098 29.4244 7.82912 29.4244 8.24536V8.25795C29.4244 8.33714 29.4192 8.42648 29.4116 8.52326C29.3985 8.62154 29.3818 8.7193 29.3614 8.81632C29.2481 9.36712 28.9854 9.80989 28.5793 10.1456C28.1716 10.4801 27.6889 10.6486 27.1331 10.6486H25.7545L25.3283 12.74H24.1348L25.3222 6.95508ZM25.9646 9.64272H27.1077C27.4057 9.64272 27.6422 9.57341 27.8147 9.43642C27.9858 9.29808 28.099 9.08678 28.1615 8.80008C28.1716 8.74715 28.1779 8.69937 28.1855 8.65538C28.1893 8.61396 28.1943 8.57226 28.1943 8.5322C28.1943 8.32712 28.1215 8.17876 27.9754 8.08563C27.8296 7.99115 27.6007 7.94607 27.2839 7.94607H26.313L25.9646 9.64272ZM34.7666 13.4306C34.3892 14.2329 34.0297 14.7006 33.8185 14.9181C33.6071 15.1333 33.1883 15.6338 32.1797 15.596L32.2667 14.9837C33.1154 14.7221 33.5743 13.5436 33.8361 13.0218L33.5241 9.17856L34.1806 9.16976H34.7314L34.7907 11.5806L35.823 9.16976H36.8683L34.7666 13.4306ZM31.8441 9.46025L31.429 9.74573C30.9951 9.40624 30.599 9.19615 29.8345 9.55081C28.7932 10.0336 27.9229 13.7375 30.7903 12.5176L30.9537 12.7113L32.0818 12.7402L32.8227 9.37483L31.8441 9.46025ZM31.2025 11.3001C31.0214 11.8347 30.6166 12.188 30.2996 12.0874C29.9827 11.9892 29.8694 11.4736 30.0533 10.9379C30.2344 10.4021 30.6418 10.05 30.9561 10.1506C31.273 10.2487 31.3874 10.7643 31.2025 11.3001Z" fill="white"/>
</g>
</svg>
