<svg xmlns="http://www.w3.org/2000/svg" width="80" height="80" viewBox="0 0 80 80" fill="none">
  <g clip-path="url(#clip0_2288_1856)">
    <path d="M51.674 66.6666C49.4688 71.941 45.2751 76.1348 40.0006 78.34C34.7262 76.1348 30.5325 71.941 28.3273 66.6666H35.8607C36.9473 68.2966 38.3506 69.7066 40.0006 70.81C41.6506 69.71 43.054 68.2966 44.144 66.6666H51.674ZM60.0006 49.35L66.6673 56.91V63.3333H13.334V56.91L20.0007 49.35V30C20.0007 18.39 28.3473 8.50998 40.0006 4.84998C51.654 8.50998 60.0006 18.39 60.0006 30V49.35ZM57.5673 56.6666L53.334 51.8666V30C53.334 22.2733 48.1006 15.2333 40.0006 11.9333C31.9006 15.2333 26.6673 22.27 26.6673 30V51.8666L22.434 56.6666H57.5673ZM40.0006 36.6666C38.2325 36.6666 36.5368 35.9643 35.2866 34.714C34.0364 33.4638 33.334 31.7681 33.334 30C33.334 28.2319 34.0364 26.5362 35.2866 25.2859C36.5368 24.0357 38.2325 23.3333 40.0006 23.3333C41.7688 23.3333 43.4644 24.0357 44.7147 25.2859C45.9649 26.5362 46.6673 28.2319 46.6673 30C46.6673 31.7681 45.9649 33.4638 44.7147 34.714C43.4644 35.9643 41.7688 36.6666 40.0006 36.6666Z" fill="#143A79"/>
  </g>
  <defs>
    <clipPath id="clip0_2288_1856">
      <rect width="80" height="80" fill="white"/>
    </clipPath>
  </defs>
</svg>