<svg width="160" height="26" viewBox="0 0 160 26" fill="none" xmlns="http://www.w3.org/2000/svg">
<g id="Group">
<path id="Vector" d="M4.1509 24.1938H0V0.592986H5.45547C11.3853 0.592986 14.4689 4.98108 14.4689 9.36917C14.4689 13.7573 11.2667 18.1454 6.04845 18.1454H4.1509V24.1938ZM4.1509 14.2317H5.81126C8.77619 14.2317 10.1994 11.7411 10.1994 9.36917C10.1994 6.99723 8.65759 4.50669 5.33687 4.50669H4.1509V14.2317ZM25.9728 24.5496C20.5173 24.5496 16.8408 20.7545 16.8408 15.0618V0.592986H21.1103V14.9432C21.1103 18.6197 22.8892 20.5173 26.0914 20.5173C30.1237 20.5173 30.9539 17.4338 30.9539 14.9432V0.592986H35.2234V15.0618C35.1048 20.7545 31.4282 24.5496 25.9728 24.5496ZM49.455 24.1938H37.9511V0.592986H42.2206V20.1615H49.455V24.1938ZM62.6193 24.1938H51.1154V0.592986H55.3849V20.1615H62.6193V24.1938ZM94.2847 24.1938H87.0503V0.592986H91.4384C93.9289 0.592986 95.9451 0.711583 97.3683 1.66036C99.503 2.84633 100.57 4.86248 100.57 7.35302C100.57 9.01338 99.8588 10.4365 98.6728 11.5039C100.926 12.6899 102.112 14.5874 102.112 17.3152C102.231 21.1103 98.6728 24.1938 94.2847 24.1938ZM91.2012 20.1615H93.4546C97.8427 20.1615 97.8427 17.7896 97.8427 17.078C97.8427 16.3664 97.8427 13.9945 93.5732 13.9945H91.2012V20.1615ZM91.2012 10.1994H92.8616C94.4033 10.1994 96.3009 9.72496 96.3009 7.35302C96.3009 6.16705 95.9451 4.50669 92.6244 4.50669H91.0826L91.2012 10.1994ZM118.834 24.1938H104.365V0.592986H118.834V4.62529H108.635V10.1994H118.241V14.1131H108.635V20.1615H118.834V24.1938ZM142.791 24.1938H137.928L135.557 18.0268H126.899L124.527 24.1938H120.02L129.627 0.711583H132.947L142.791 24.1938ZM128.322 14.1131H134.015L131.168 6.99723L128.322 14.1131ZM152.516 20.1615C153.109 21.4661 153.82 22.7706 154.651 24.0752H159.869C158.683 22.2963 157.497 20.0429 156.548 18.1454L154.769 14.5874C155.837 13.9945 156.785 13.1643 157.497 12.0969C158.209 10.9109 158.564 9.60637 158.564 8.0646C158.564 3.43932 155.125 0.711583 149.551 0.711583H143.858V24.1938H148.009V16.2478C148.009 16.2478 149.077 16.2478 150.5 16.0106C150.974 16.9594 151.686 18.5012 152.516 20.1615ZM148.009 11.9783V4.62529H149.314C152.635 4.62529 154.295 5.81126 154.295 8.1832C154.295 11.3853 151.686 12.0969 149.432 12.0969H148.009V11.9783ZM80.4089 18.7383C80.4089 17.9082 80.5275 17.1966 80.7647 16.485C81.239 15.1804 81.9506 14.2317 82.8994 14.1131H83.018V10.1994C80.0531 10.1994 77.6811 12.2155 76.9696 14.9432L70.8025 8.1832C70.2095 7.59022 69.9723 6.99723 69.9723 6.40424C69.9723 5.81126 70.2095 5.21827 70.6839 4.74389C71.1583 4.2695 71.7513 4.0323 72.3443 4.0323C72.9372 4.0323 73.5302 4.2695 74.0046 4.74389C74.2418 4.98108 74.3604 5.21827 74.479 5.45547L78.0369 3.67651C77.6811 3.08353 77.3253 2.49054 76.851 1.89755C75.665 0.711583 74.0046 0 72.3443 0C70.6839 0 69.1421 0.592986 67.8376 1.89755C66.6516 3.08353 65.94 4.74389 65.94 6.40424C65.94 7.94601 66.533 9.60637 67.719 10.7923C65.5842 12.0969 64.0425 14.4688 64.0425 17.1966C64.0425 21.4661 67.4818 25.024 71.8699 25.024C74.3604 25.024 76.6138 23.9566 78.1555 22.2963L79.8159 24.0752H85.3899L80.4089 18.7383ZM71.9885 21.1103C69.8537 21.1103 68.1934 19.3313 68.1934 17.1966C68.1934 15.6548 69.2607 14.3503 70.6839 13.8759L75.665 19.3313C74.7162 20.3987 73.4116 21.1103 71.9885 21.1103Z" fill="black"/>
</g>
</svg>
