<svg xmlns="http://www.w3.org/2000/svg" width="80" height="80" viewBox="0 0 80 80" fill="none">
  <g clip-path="url(#clip0_2288_1822)">
    <path d="M63.3327 66.6667H16.666V70C16.666 70.8841 16.3148 71.7319 15.6897 72.357C15.0646 72.9821 14.2167 73.3333 13.3327 73.3333H9.99935C9.11529 73.3333 8.26745 72.9821 7.64233 72.357C7.0172 71.7319 6.66602 70.8841 6.66602 70V36.6667L14.9327 17.3733C15.4471 16.1733 16.3025 15.1508 17.3929 14.4326C18.4832 13.7144 19.7604 13.3322 21.066 13.3333H58.9327C60.2372 13.3335 61.5129 13.7163 62.602 14.4344C63.691 15.1525 64.5454 16.1744 65.0593 17.3733L73.3327 36.6667V70C73.3327 70.8841 72.9815 71.7319 72.3564 72.357C71.7313 72.9821 70.8834 73.3333 69.9994 73.3333H66.666C65.782 73.3333 64.9341 72.9821 64.309 72.357C63.6839 71.7319 63.3327 70.8841 63.3327 70V66.6667ZM66.666 43.3333H13.3327V60H66.666V43.3333ZM13.9193 36.6667H66.0793L58.936 20H21.066L13.9227 36.6667H13.9193ZM21.666 56.6667C20.3399 56.6667 19.0682 56.1399 18.1305 55.2022C17.1928 54.2645 16.666 52.9927 16.666 51.6667C16.666 50.3406 17.1928 49.0688 18.1305 48.1311C19.0682 47.1935 20.3399 46.6667 21.666 46.6667C22.9921 46.6667 24.2639 47.1935 25.2016 48.1311C26.1392 49.0688 26.666 50.3406 26.666 51.6667C26.666 52.9927 26.1392 54.2645 25.2016 55.2022C24.2639 56.1399 22.9921 56.6667 21.666 56.6667ZM58.3327 56.6667C57.0066 56.6667 55.7348 56.1399 54.7972 55.2022C53.8595 54.2645 53.3327 52.9927 53.3327 51.6667C53.3327 50.3406 53.8595 49.0688 54.7972 48.1311C55.7348 47.1935 57.0066 46.6667 58.3327 46.6667C59.6588 46.6667 60.9305 47.1935 61.8682 48.1311C62.8059 49.0688 63.3327 50.3406 63.3327 51.6667C63.3327 52.9927 62.8059 54.2645 61.8682 55.2022C60.9305 56.1399 59.6588 56.6667 58.3327 56.6667Z" fill="#143A79"/>
  </g>
  <defs>
    <clipPath id="clip0_2288_1822">
      <rect width="80" height="80" fill="white"/>
    </clipPath>
  </defs>
</svg>