<svg width="160" height="39" viewBox="0 0 160 39" fill="none" xmlns="http://www.w3.org/2000/svg">
<g id="Group">
<path id="Vector" d="M32.5676 32.0885C32.5676 34.6037 30.4684 36.6453 28.8876 36.6453H11.0124L33.4956 0.728516H3.43483V6.68052H4.97723C4.97723 4.16532 6.60283 2.13012 8.19003 2.13012H23.6332L1.01562 38.0405H33.63V32.0885H32.5676Z" fill="black"/>
<g id="Group_2">
<path id="Vector_2" d="M71.5773 35.1354L54.1821 0.729004L38.2397 35.161C37.9581 35.9162 36.4221 36.8698 34.2461 36.8698V38.0346H42.7325V36.8698C41.1581 36.8698 39.4685 36.089 39.8781 35.1546L43.7117 26.841H58.4189L62.5981 35.1354C63.0717 35.9738 60.9533 36.8762 58.7709 36.8762V38.041H76.4349L76.4413 36.8762C73.7661 36.8698 72.1341 36.0378 71.5773 35.1354ZM44.3517 25.497L50.7133 11.5322L57.8173 25.497H44.3517Z" fill="black"/>
</g>
<path id="Vector_3" d="M78.4648 2.16852C81.0504 2.16852 83.188 2.83412 83.188 3.64052C83.188 10.0405 83.1752 35.0965 83.188 35.0965C83.188 35.9541 81.0824 36.9077 78.4904 36.9077L78.484 38.0341H95.7768V36.9845C93.2105 36.9845 91.1305 35.9605 91.1305 35.1029V1.85492H96.1161C100.916 1.85492 104.807 5.84212 104.807 10.3669C104.807 14.8917 100.916 18.5653 96.1096 18.5653H92.6601C92.6601 18.5653 104.346 36.2613 104.366 36.2613C104.826 36.9333 105.057 38.0405 105.057 38.0405H117.658V36.9909C115.233 36.9909 113.966 35.9861 113.262 35.1029L102.01 20.4213C107.412 20.0629 111.591 15.6981 111.591 10.5141C111.591 5.09972 106.938 0.728516 101.198 0.728516H78.4648V2.16852Z" fill="black"/>
<path id="Vector_4" d="M156.159 35.1349L138.764 0.728516L122.822 35.1605C122.54 35.9157 121.011 36.9077 118.828 36.9077V38.0341H127.315V36.9845C125.74 36.9845 124.057 36.0885 124.46 35.1541L128.294 26.8405H143.001L147.18 35.1349C147.66 35.9733 145.535 36.9141 143.353 36.9141V38.0405H161.017L161.023 36.9525C158.348 36.9525 156.716 36.0373 156.159 35.1349ZM128.927 25.4965L135.289 11.5317L142.393 25.4965H128.927Z" fill="black"/>
</g>
</svg>
